<svg xmlns="http://www.w3.org/2000/svg" width="95" height="44" viewBox="0 0 95 44" fill="none">
<path d="M94.2728 13.9047C94.2728 15.1557 93.2586 16.1699 92.0076 16.1699C90.7563 16.1699 89.7421 15.1557 89.7421 13.9047C89.7421 12.6537 90.7563 11.6395 92.0076 11.6395C93.2586 11.6395 94.2728 12.6537 94.2728 13.9047Z" fill="#B49B1E"/>
<path d="M38.1126 22.3454L35.954 21.6586C35.4144 21.4869 35.0519 20.9912 35.0519 20.4249V11.639H32.4631V20.4249C32.4631 22.1232 33.5504 23.6105 35.169 24.1256L37.3276 24.8124C38.6763 25.2417 39.5825 26.4808 39.5825 27.8962V38.8223C39.5825 40.2498 38.4213 41.411 36.9938 41.411H30.5214V11.639H27.9327V41.411C27.9327 42.8387 29.0939 44 30.5214 44H36.9938C39.8488 44 42.1715 41.6772 42.1715 38.8223V27.8962C42.1715 25.3486 40.5404 23.1178 38.1126 22.3454Z" fill="#371A12"/>
<path d="M68.7787 22.6333L67.5051 22.4016C66.8893 22.2897 66.4422 21.754 66.4422 21.1282V11.6388H63.8533V21.1282C63.8533 23.0062 65.1944 24.6129 67.042 24.9488L68.3156 25.1803C69.8552 25.4602 70.9727 26.7993 70.9727 28.3643V38.822C70.9727 40.2495 69.8114 41.411 68.3839 41.411H61.9116V11.6388H59.3228V41.411C59.3228 42.8385 60.4841 44 61.9116 44H68.3839C71.2389 44 73.5617 41.6772 73.5617 38.822V28.3643C73.5617 25.5474 71.5501 23.1372 68.7787 22.6333Z" fill="#371A12"/>
<path d="M86.1825 41.411H80.6812C79.2537 41.411 78.0922 40.2498 78.0922 38.8223V21.9945H75.5035V38.8223C75.5035 41.6772 77.826 44 80.6812 44H86.1825C87.61 44 88.7715 42.8385 88.7715 41.411V21.9945H86.1825V41.411Z" fill="#371A12"/>
<path d="M90.7129 44H93.3019V21.9945H90.7129V44Z" fill="#371A12"/>
<path d="M53.4978 21.9945H45.7311V24.5834H53.4978C54.2116 24.5834 54.7922 25.1641 54.7922 25.8778V41.4112H49.2909C47.8634 41.4112 46.702 40.2498 46.702 38.8223V33.3918C46.702 31.9789 47.6061 30.7405 48.9519 30.3096L53.1743 28.9196V26.2013L48.1628 27.8442C45.7405 28.6191 44.1132 30.8487 44.1132 33.3918V38.8223C44.1132 41.6775 46.436 44 49.2909 44H54.7922C56.2197 44 57.3812 42.8387 57.3812 41.4112V25.8778C57.3812 23.7366 55.6391 21.9945 53.4978 21.9945Z" fill="#371A12"/>
<path d="M23.7317 9.77278C23.719 9.77204 23.7066 9.77088 23.6939 9.77088H18.6329C17.5329 9.77088 16.4986 10.1992 15.7208 10.9771L13.4452 13.2527C12.9707 13.7273 12.1986 13.7273 11.7242 13.2527L1.44925 2.97781V11.9768C1.44925 16.5177 5.14343 20.2119 9.68425 20.2119C11.884 20.2119 13.952 19.3553 15.5074 17.8C15.766 17.5411 15.766 17.1215 15.5074 16.8628C15.2486 16.6041 14.8291 16.6042 14.5702 16.8628C13.2653 18.168 11.5301 18.8867 9.68425 18.8867C5.87418 18.8867 2.77444 15.787 2.77444 11.9768V6.17703L10.7871 14.1898C11.7784 15.1809 13.3909 15.1809 14.3822 14.1898L16.6578 11.9142C17.1854 11.3866 17.8868 11.096 18.6329 11.096H22.4085L23.7317 9.77278Z" fill="#371A12"/>
<path d="M4.71949 9.03108e-05V5.1525L6.04467 6.47768V3.19941L14.2549 11.4097L15.192 10.4726L4.71949 9.03108e-05Z" fill="#B49B1E"/>
<path d="M7.94236 18.7453L4.77524 21.9125C3.45764 23.2301 1.73066 23.8945 0 23.9065L1.22529 25.1318C2.86889 24.8738 4.44829 24.1134 5.71221 22.8496L8.87943 19.6824L7.94236 18.7453Z" fill="#371A12"/>
<path d="M19.0145 13.0848V15.628C19.0145 18.603 16.5941 21.0234 13.619 21.0234H10.5864C9.60296 21.0234 8.67863 21.4064 7.98325 22.1016L3.08895 26.996L4.02591 27.9331L8.92032 23.0387C9.36538 22.5936 9.95697 22.3486 10.5864 22.3486H13.619C17.3248 22.3486 20.3397 19.3338 20.3397 15.628V11.7597L19.0145 13.0848Z" fill="#B49B1E"/>
</svg>